<svg version="1" xmlns="http://www.w3.org/2000/svg" width="1066.667" height="1066.667" viewBox="0 0 800.000000 800.000000"><path d="M68.5 1.4C58 4.7 48.8 12.7 44.4 22.3l-2.9 6.2v743l2.9 6.2c3.5 7.6 11.3 15.3 19.3 19.1l5.8 2.7 307.6.2c284.5.3 307.9.2 312.5-1.4 13.7-4.6 22.9-15 26-29.4.3-1.8.8-367.7.5-379.1-.1-1.1-4.7 2.9-12.6 10.8L691 413.1V767l-3.4 3.8-3.4 3.7-304.2.3c-336.3.2-307.8.8-312-6.1-2-3.2-2-7.9-2-368.7 0-290.4.3-366 1.3-368 .7-1.3 2.8-3.5 4.6-4.7l3.4-2.3 304.4.2 304.5.3 3.4 3.7L691 33v166.9l12.1 12.1c6.7 6.7 12.4 11.9 12.6 11.6.8-.8.6-187.5-.2-192.6-1.7-11.1-10.3-22.1-21.5-27.4L687.5.5 380 .3C134.2.2 71.7.4 68.5 1.4z"/><path d="M174.5 176.8c-.3.3-.5 3.2-.5 6.4v5.8h409.1l-.3-6.3-.3-6.2-203.8-.1c-112 0-203.9.2-204.2.4zM658.5 207.4c-3.4 1.5-70.4 68.4-71.9 71.9-3 6.7-3.4 6.1 44.3 54 25.9 26.1 46 45.5 47.9 46.3 7.1 3.1 7.2 3 44.8-34.6 19.2-19.2 35.2-36 35.7-37.5 2.2-6.5 2.1-6.6-46-54.6-48.6-48.5-48.3-48.2-54.8-45.5zM559.7 306.3c-3.8 1.6-214.6 212.5-215.3 215.4-1.7 6.5-1.4 6.9 46.4 54.6 25.2 25.1 46.4 45.7 47.2 45.8.8 0 2.5.2 3.7.3 1.2.1 3.2-.3 4.4-.9 1.2-.7 49.8-48.9 108.1-107.1 111.1-111.1 108.1-107.9 106.5-114.6-.8-2.9-89.6-91.9-93.4-93.5-1.5-.7-3.2-1.2-3.8-1.2-.5 0-2.3.5-3.8 1.2zM174.5 321.8c-.3.3-.5 3.1-.5 6.3v5.8h320.8l4.9-4.7c2.6-2.6 5.4-5.5 6.1-6.4 1.2-1.5-10.8-1.6-164.7-1.6-91.3 0-166.3.3-166.6.6zM174 472.5v6.3l88.3-.1 88.2-.2 5.8-5.9c3.1-3.2 5.7-6 5.7-6.2 0-.2-42.3-.3-94-.3l-94 .1v6.3zM318.4 548.3c-.9 1.2-12.1 33.7-24.9 72.2-16.8 50.7-23 70.7-22.5 72.5.4 1.6 1.5 2.6 2.9 2.8 2.7.4 140.9-45.5 143.4-47.6 4.4-3.9 4.1-4.3-45.3-53.7-28.1-28.1-47.9-47.2-49.5-47.6-1.9-.6-2.9-.2-4.1 1.4zM174.2 617.4l.3 6.1 45.6.1h45.6l2-6.2 2-6.2h-95.8l.3 6.2zM487.4 616.5c-2.7 2.8-5.3 5.5-5.6 6.1-.5.7 16.4 1 50.3 1H583v-12.4l-45.2.1h-45.3l-5.1 5.2z"/></svg>